<?xml version="1.0" standalone="no"?>
<!DOCTYPE svg PUBLIC "-//W3C//DTD SVG 20010904//EN"
 "http://www.w3.org/TR/2001/REC-SVG-20010904/DTD/svg10.dtd">
<svg version="1.0" xmlns="http://www.w3.org/2000/svg"
 width="2080.000000pt" height="2080.000000pt" viewBox="0 0 2080.000000 2080.000000"
 preserveAspectRatio="xMidYMid meet">
<metadata>
Created by potrace 1.14, written by Peter Selinger 2001-2017
</metadata>
<g transform="translate(0.000000,2080.000000) scale(0.100000,-0.100000)"
fill="#000000" stroke="none">
<path d="M3219 20796 c-2 -2 -40 -7 -84 -10 -126 -9 -301 -34 -420 -61 -38 -8
-81 -18 -95 -21 -14 -2 -32 -7 -40 -10 -8 -3 -28 -8 -44 -11 -61 -10 -330
-103 -457 -159 -144 -63 -354 -168 -380 -190 -8 -8 -19 -14 -23 -14 -4 0 -65
-38 -135 -84 -539 -357 -984 -878 -1236 -1446 -21 -47 -46 -103 -55 -125 -34
-75 -119 -340 -149 -465 -41 -169 -73 -358 -89 -525 -9 -106 -9 -14445 1
-14559 4 -49 9 -98 12 -110 2 -12 6 -39 9 -61 49 -397 207 -856 427 -1237 395
-685 1036 -1224 1784 -1499 87 -32 361 -114 410 -122 17 -3 62 -12 100 -20 98
-22 269 -46 378 -55 122 -9 14428 -9 14537 0 47 5 96 10 110 12 14 2 50 7 80
11 30 4 62 8 70 10 8 2 35 6 60 10 24 4 47 8 50 10 3 2 22 6 44 9 92 15 420
109 501 145 11 4 72 30 135 56 604 253 1144 704 1516 1266 46 70 84 130 84
135 0 4 6 15 14 23 22 24 147 274 194 386 53 129 98 251 123 340 30 105 57
207 63 235 2 14 11 57 19 95 9 39 20 106 27 150 6 44 13 91 16 105 2 14 7 66
11 115 10 117 10 14434 0 14545 -4 47 -9 101 -12 120 -3 19 -7 51 -10 70 -17
125 -38 228 -71 358 -78 305 -199 605 -348 862 -14 25 -29 52 -33 60 -33 68
-217 324 -332 460 -100 119 -334 345 -464 448 -125 100 -333 243 -432 297
-216 119 -408 205 -610 274 -114 38 -355 104 -420 114 -16 3 -57 10 -90 15
-67 12 -103 17 -190 28 -33 3 -69 9 -80 13 -22 6 -14469 14 -14476 7z"/>
</g>
</svg>
